<mxfile host="app.diagrams.net" modified="2021-10-27T19:56:46.694Z" agent="5.0 (X11; Linux x86_64) AppleWebKit/537.36 (KHTML, like Gecko) Chrome/93.0.4577.63 Safari/537.36" etag="cKdlLlNNxV3TXAXtt5gm" version="15.6.0" type="github">
  <diagram id="kgpKYQtTHZ0yAKxKKP6v" name="Page-1">
    <mxGraphModel dx="796" dy="401" grid="1" gridSize="10" guides="1" tooltips="1" connect="1" arrows="1" fold="1" page="1" pageScale="1" pageWidth="850" pageHeight="1100" math="0" shadow="0">
      <root>
        <mxCell id="0" />
        <mxCell id="1" parent="0" />
        <mxCell id="3nuBFxr9cyL0pnOWT2aG-1" value="Registration" style="shape=umlLifeline;perimeter=lifelinePerimeter;container=1;collapsible=0;recursiveResize=0;rounded=0;shadow=0;strokeWidth=1;" parent="1" vertex="1">
          <mxGeometry x="120" y="80" width="100" height="300" as="geometry" />
        </mxCell>
        <mxCell id="3nuBFxr9cyL0pnOWT2aG-2" value="" style="points=[];perimeter=orthogonalPerimeter;rounded=0;shadow=0;strokeWidth=1;" parent="3nuBFxr9cyL0pnOWT2aG-1" vertex="1">
          <mxGeometry x="45" y="70" width="10" height="40" as="geometry" />
        </mxCell>
        <mxCell id="eDxwZ_IVl8I4qjwxRsdg-15" value="Sign up" style="text;html=1;strokeColor=none;fillColor=none;align=center;verticalAlign=middle;whiteSpace=wrap;rounded=0;fontSize=10;" vertex="1" parent="3nuBFxr9cyL0pnOWT2aG-1">
          <mxGeometry x="-40" y="50" width="60" height="30" as="geometry" />
        </mxCell>
        <mxCell id="3nuBFxr9cyL0pnOWT2aG-5" value="Login" style="shape=umlLifeline;perimeter=lifelinePerimeter;container=1;collapsible=0;recursiveResize=0;rounded=0;shadow=0;strokeWidth=1;" parent="1" vertex="1">
          <mxGeometry x="230" y="80" width="100" height="300" as="geometry" />
        </mxCell>
        <mxCell id="3nuBFxr9cyL0pnOWT2aG-6" value="" style="points=[];perimeter=orthogonalPerimeter;rounded=0;shadow=0;strokeWidth=1;" parent="3nuBFxr9cyL0pnOWT2aG-5" vertex="1">
          <mxGeometry x="45" y="120" width="10" height="120" as="geometry" />
        </mxCell>
        <mxCell id="eDxwZ_IVl8I4qjwxRsdg-18" value="Data store" style="text;html=1;strokeColor=none;fillColor=none;align=center;verticalAlign=middle;whiteSpace=wrap;rounded=0;fontSize=10;" vertex="1" parent="3nuBFxr9cyL0pnOWT2aG-5">
          <mxGeometry x="-30" y="60" width="60" height="30" as="geometry" />
        </mxCell>
        <mxCell id="eDxwZ_IVl8I4qjwxRsdg-38" value="" style="edgeStyle=orthogonalEdgeStyle;rounded=0;orthogonalLoop=1;jettySize=auto;html=1;fontSize=10;" edge="1" parent="1" source="eDxwZ_IVl8I4qjwxRsdg-1" target="eDxwZ_IVl8I4qjwxRsdg-5">
          <mxGeometry relative="1" as="geometry" />
        </mxCell>
        <mxCell id="eDxwZ_IVl8I4qjwxRsdg-1" value="User" style="shape=umlActor;verticalLabelPosition=bottom;verticalAlign=top;html=1;outlineConnect=0;" vertex="1" parent="1">
          <mxGeometry x="40" y="50" width="30" height="60" as="geometry" />
        </mxCell>
        <mxCell id="eDxwZ_IVl8I4qjwxRsdg-5" value="" style="points=[];perimeter=orthogonalPerimeter;rounded=0;shadow=0;strokeWidth=1;" vertex="1" parent="1">
          <mxGeometry x="50" y="140" width="10" height="230" as="geometry" />
        </mxCell>
        <mxCell id="eDxwZ_IVl8I4qjwxRsdg-6" value="DB" style="shape=umlLifeline;perimeter=lifelinePerimeter;container=1;collapsible=0;recursiveResize=0;rounded=0;shadow=0;strokeWidth=1;" vertex="1" parent="1">
          <mxGeometry x="340" y="80" width="100" height="300" as="geometry" />
        </mxCell>
        <mxCell id="eDxwZ_IVl8I4qjwxRsdg-7" value="" style="points=[];perimeter=orthogonalPerimeter;rounded=0;shadow=0;strokeWidth=1;" vertex="1" parent="eDxwZ_IVl8I4qjwxRsdg-6">
          <mxGeometry x="45" y="80" width="10" height="110" as="geometry" />
        </mxCell>
        <mxCell id="eDxwZ_IVl8I4qjwxRsdg-8" value="Movies" style="shape=umlLifeline;perimeter=lifelinePerimeter;container=1;collapsible=0;recursiveResize=0;rounded=0;shadow=0;strokeWidth=1;" vertex="1" parent="1">
          <mxGeometry x="450" y="80" width="120" height="300" as="geometry" />
        </mxCell>
        <mxCell id="eDxwZ_IVl8I4qjwxRsdg-9" value="" style="points=[];perimeter=orthogonalPerimeter;rounded=0;shadow=0;strokeWidth=1;" vertex="1" parent="eDxwZ_IVl8I4qjwxRsdg-8">
          <mxGeometry x="55" y="80" width="10" height="30" as="geometry" />
        </mxCell>
        <mxCell id="eDxwZ_IVl8I4qjwxRsdg-27" value="Access movies" style="text;html=1;strokeColor=none;fillColor=none;align=center;verticalAlign=middle;whiteSpace=wrap;rounded=0;fontSize=10;" vertex="1" parent="eDxwZ_IVl8I4qjwxRsdg-8">
          <mxGeometry x="-30" y="75" width="60" height="30" as="geometry" />
        </mxCell>
        <mxCell id="eDxwZ_IVl8I4qjwxRsdg-10" value="Posts" style="shape=umlLifeline;perimeter=lifelinePerimeter;container=1;collapsible=0;recursiveResize=0;rounded=0;shadow=0;strokeWidth=1;" vertex="1" parent="1">
          <mxGeometry x="580" y="80" width="100" height="300" as="geometry" />
        </mxCell>
        <mxCell id="eDxwZ_IVl8I4qjwxRsdg-11" value="" style="points=[];perimeter=orthogonalPerimeter;rounded=0;shadow=0;strokeWidth=1;" vertex="1" parent="eDxwZ_IVl8I4qjwxRsdg-10">
          <mxGeometry x="45" y="100" width="10" height="60" as="geometry" />
        </mxCell>
        <mxCell id="eDxwZ_IVl8I4qjwxRsdg-31" value="Access Posts" style="text;html=1;strokeColor=none;fillColor=none;align=center;verticalAlign=middle;whiteSpace=wrap;rounded=0;fontSize=10;" vertex="1" parent="eDxwZ_IVl8I4qjwxRsdg-10">
          <mxGeometry x="-30" y="100" width="60" height="30" as="geometry" />
        </mxCell>
        <mxCell id="eDxwZ_IVl8I4qjwxRsdg-36" value="SignOut" style="text;html=1;strokeColor=none;fillColor=none;align=center;verticalAlign=middle;whiteSpace=wrap;rounded=0;fontSize=10;" vertex="1" parent="eDxwZ_IVl8I4qjwxRsdg-10">
          <mxGeometry x="-40" y="170" width="60" height="30" as="geometry" />
        </mxCell>
        <mxCell id="eDxwZ_IVl8I4qjwxRsdg-12" value="Sign Out" style="shape=umlLifeline;perimeter=lifelinePerimeter;container=1;collapsible=0;recursiveResize=0;rounded=0;shadow=0;strokeWidth=1;" vertex="1" parent="1">
          <mxGeometry x="690" y="80" width="100" height="300" as="geometry" />
        </mxCell>
        <mxCell id="eDxwZ_IVl8I4qjwxRsdg-13" value="" style="points=[];perimeter=orthogonalPerimeter;rounded=0;shadow=0;strokeWidth=1;" vertex="1" parent="eDxwZ_IVl8I4qjwxRsdg-12">
          <mxGeometry x="45" y="80" width="10" height="160" as="geometry" />
        </mxCell>
        <mxCell id="eDxwZ_IVl8I4qjwxRsdg-14" value="" style="endArrow=classic;html=1;rounded=0;" edge="1" parent="1" source="eDxwZ_IVl8I4qjwxRsdg-5" target="3nuBFxr9cyL0pnOWT2aG-2">
          <mxGeometry width="50" height="50" relative="1" as="geometry">
            <mxPoint x="280" y="210" as="sourcePoint" />
            <mxPoint x="330" y="160" as="targetPoint" />
            <Array as="points">
              <mxPoint x="130" y="160" />
            </Array>
          </mxGeometry>
        </mxCell>
        <mxCell id="eDxwZ_IVl8I4qjwxRsdg-17" value="" style="endArrow=classic;html=1;rounded=0;fontSize=10;entryX=0.5;entryY=0.013;entryDx=0;entryDy=0;entryPerimeter=0;" edge="1" parent="1" source="3nuBFxr9cyL0pnOWT2aG-1" target="eDxwZ_IVl8I4qjwxRsdg-7">
          <mxGeometry width="50" height="50" relative="1" as="geometry">
            <mxPoint x="280" y="210" as="sourcePoint" />
            <mxPoint x="330" y="160" as="targetPoint" />
          </mxGeometry>
        </mxCell>
        <mxCell id="eDxwZ_IVl8I4qjwxRsdg-19" value="" style="endArrow=none;dashed=1;html=1;rounded=0;fontSize=10;entryX=0.2;entryY=0.106;entryDx=0;entryDy=0;entryPerimeter=0;" edge="1" parent="1" source="3nuBFxr9cyL0pnOWT2aG-1" target="eDxwZ_IVl8I4qjwxRsdg-7">
          <mxGeometry width="50" height="50" relative="1" as="geometry">
            <mxPoint x="280" y="210" as="sourcePoint" />
            <mxPoint x="330" y="160" as="targetPoint" />
          </mxGeometry>
        </mxCell>
        <mxCell id="eDxwZ_IVl8I4qjwxRsdg-20" value="Success" style="text;html=1;strokeColor=none;fillColor=none;align=center;verticalAlign=middle;whiteSpace=wrap;rounded=0;fontSize=10;" vertex="1" parent="1">
          <mxGeometry x="200" y="170" width="60" height="30" as="geometry" />
        </mxCell>
        <mxCell id="eDxwZ_IVl8I4qjwxRsdg-22" value="" style="endArrow=classic;html=1;rounded=0;fontSize=10;exitX=1.1;exitY=0.317;exitDx=0;exitDy=0;exitPerimeter=0;" edge="1" parent="1" source="eDxwZ_IVl8I4qjwxRsdg-5" target="3nuBFxr9cyL0pnOWT2aG-5">
          <mxGeometry width="50" height="50" relative="1" as="geometry">
            <mxPoint x="280" y="210" as="sourcePoint" />
            <mxPoint x="330" y="160" as="targetPoint" />
          </mxGeometry>
        </mxCell>
        <mxCell id="eDxwZ_IVl8I4qjwxRsdg-23" value="" style="endArrow=classic;html=1;rounded=0;fontSize=10;startArrow=none;" edge="1" parent="1" source="3nuBFxr9cyL0pnOWT2aG-6" target="eDxwZ_IVl8I4qjwxRsdg-6">
          <mxGeometry width="50" height="50" relative="1" as="geometry">
            <mxPoint x="400" y="255" as="sourcePoint" />
            <mxPoint x="330" y="160" as="targetPoint" />
          </mxGeometry>
        </mxCell>
        <mxCell id="eDxwZ_IVl8I4qjwxRsdg-34" value="" style="endArrow=classic;html=1;rounded=0;fontSize=10;entryX=0.2;entryY=0.583;entryDx=0;entryDy=0;entryPerimeter=0;" edge="1" parent="1" source="eDxwZ_IVl8I4qjwxRsdg-7" target="eDxwZ_IVl8I4qjwxRsdg-11">
          <mxGeometry width="50" height="50" relative="1" as="geometry">
            <mxPoint x="380" y="260" as="sourcePoint" />
            <mxPoint x="430" y="210" as="targetPoint" />
          </mxGeometry>
        </mxCell>
        <mxCell id="eDxwZ_IVl8I4qjwxRsdg-35" value="" style="endArrow=classic;html=1;rounded=0;fontSize=10;exitX=1;exitY=0.827;exitDx=0;exitDy=0;exitPerimeter=0;" edge="1" parent="1" source="eDxwZ_IVl8I4qjwxRsdg-7" target="eDxwZ_IVl8I4qjwxRsdg-13">
          <mxGeometry width="50" height="50" relative="1" as="geometry">
            <mxPoint x="380" y="260" as="sourcePoint" />
            <mxPoint x="430" y="210" as="targetPoint" />
          </mxGeometry>
        </mxCell>
        <mxCell id="eDxwZ_IVl8I4qjwxRsdg-37" value="" style="endArrow=classic;html=1;rounded=0;fontSize=10;" edge="1" parent="1" source="eDxwZ_IVl8I4qjwxRsdg-7" target="eDxwZ_IVl8I4qjwxRsdg-9">
          <mxGeometry width="50" height="50" relative="1" as="geometry">
            <mxPoint x="380" y="270" as="sourcePoint" />
            <mxPoint x="430" y="220" as="targetPoint" />
          </mxGeometry>
        </mxCell>
      </root>
    </mxGraphModel>
  </diagram>
</mxfile>
